<svg xmlns="http://www.w3.org/2000/svg" width="71" height="71" viewBox="0 0 71 71">
  <path id="Icon_material-casino" data-name="Icon material-casino" d="M67.611,4.5H12.389A7.912,7.912,0,0,0,4.5,12.389V67.611A7.912,7.912,0,0,0,12.389,75.5H67.611A7.912,7.912,0,0,0,75.5,67.611V12.389A7.912,7.912,0,0,0,67.611,4.5ZM22.25,63.667a5.917,5.917,0,1,1,5.917-5.917A5.909,5.909,0,0,1,22.25,63.667Zm0-35.5a5.917,5.917,0,1,1,5.917-5.917A5.909,5.909,0,0,1,22.25,28.167ZM40,45.917A5.917,5.917,0,1,1,45.917,40,5.909,5.909,0,0,1,40,45.917Zm17.75,17.75a5.917,5.917,0,1,1,5.917-5.917A5.909,5.909,0,0,1,57.75,63.667Zm0-35.5a5.917,5.917,0,1,1,5.917-5.917A5.909,5.909,0,0,1,57.75,28.167Z" transform="translate(-4.5 -4.5)" fill="#fff"/>
</svg>
