<svg id="slot" xmlns="http://www.w3.org/2000/svg" width="62.875" height="62.876" viewBox="0 0 62.875 62.876">
  <path id="Path_47231" data-name="Path 47231" d="M95.379,0H77.494A14.928,14.928,0,0,0,62.7,12.28h47.468A14.928,14.928,0,0,0,95.379,0Zm-20,8.6a1.845,1.845,0,1,1,1.845-1.845A1.845,1.845,0,0,1,75.384,8.6Zm7.368,0A1.845,1.845,0,1,1,84.6,6.751,1.845,1.845,0,0,1,82.752,8.6Zm7.368,0a1.845,1.845,0,1,1,1.845-1.845A1.845,1.845,0,0,1,90.12,8.6Zm7.368,0a1.845,1.845,0,1,1,1.845-1.845A1.845,1.845,0,0,1,97.489,8.6Z" transform="translate(-55 0)" fill="#fff"/>
  <path id="Path_47232" data-name="Path 47232" d="M57.962,130H4.913A4.913,4.913,0,0,0,0,134.913V172a4.913,4.913,0,0,0,4.913,4.913h53.05A4.913,4.913,0,0,0,62.875,172V134.913A4.913,4.913,0,0,0,57.962,130Zm-4.421,40.893H9.332a1.845,1.845,0,0,1,0-3.69H53.541a1.845,1.845,0,0,1,0,3.69Zm1.845-10.678a1.845,1.845,0,0,1-1.845,1.845H9.332a1.845,1.845,0,0,1-1.845-1.845v-22.1a1.845,1.845,0,0,1,1.845-1.845H53.541a1.845,1.845,0,0,1,1.845,1.845Z" transform="translate(0 -114.035)" fill="#fff"/>
  <path id="Path_47233" data-name="Path 47233" d="M102.052,211.05H91v18.42h11.052Zm-2.786,7.323-2.64,5.106a.491.491,0,0,1-.436.265H94.729a.491.491,0,0,1-.433-.723l2.217-4.143H94.222a.492.492,0,0,1-.491-.491V217.32a.491.491,0,0,1,.491-.491h4.23a.491.491,0,0,1,.446.287l.379.825a.49.49,0,0,1-.012.433Z" transform="translate(-79.826 -185.132)" fill="#fff"/>
  <path id="Path_47234" data-name="Path 47234" d="M222.052,211.05H211v18.42h11.052Zm-2.786,7.323-2.64,5.106a.491.491,0,0,1-.436.265h-1.461a.491.491,0,0,1-.433-.723l2.217-4.143H214.22a.492.492,0,0,1-.491-.491V217.32a.491.491,0,0,1,.491-.491h4.23a.491.491,0,0,1,.446.287l.379.825a.49.49,0,0,1-.01.433Z" transform="translate(-185.089 -185.132)" fill="#fff"/>
  <path id="Path_47235" data-name="Path 47235" d="M331,229.47h11.052V211.05H331Zm2.731-12.147a.491.491,0,0,1,.491-.491h4.23a.491.491,0,0,1,.446.287l.379.825a.492.492,0,0,1-.01.429l-2.64,5.107a.492.492,0,0,1-.436.265H334.73a.491.491,0,0,1-.433-.723l2.217-4.143h-2.293a.491.491,0,0,1-.492-.491v-1.067Z" transform="translate(-290.352 -185.132)" fill="#fff"/>
</svg>
